<svg xmlns="http://www.w3.org/2000/svg" xmlns:xlink="http://www.w3.org/1999/xlink" version="1.1" x="0px" y="0px" viewBox="0 0 100 100" enable-background="new 0 0 100 100" xml:space="preserve">
<style type="text/css">
	.st0,.st1{fill:#00AD9A;}
</style>
<path class="st0" d="M92.75,8.375H7.25C6.009,8.375,5,9.381,5,10.625v20.25c0,1.241,1.009,2.25,2.25,2.25H9.5v56.25  c0,1.241,1.009,2.25,2.25,2.25h76.5c1.241,0,2.25-1.009,2.25-2.25v-56.25h2.25c1.241,0,2.25-1.009,2.25-2.25v-20.25  C95,9.381,93.991,8.375,92.75,8.375 M86,87.125H14v-54h72V87.125z M90.5,28.625h-81v-15.75h81V28.625z"/><path class="st1" d="M62.368,46.625c1.861,0,3.938,1.516,3.938,3.375c0,1.861-2.076,3.375-3.938,3.375h-24.75c-1.861,0-3.938-1.514-3.938-3.375  c0-1.859,2.077-3.375,3.938-3.375H62.368 M62.368,42.125h-24.75c-4.348,0-7.875,3.526-7.875,7.875c0,4.351,3.527,7.875,7.875,7.875  h24.75c4.349,0,7.875-3.524,7.875-7.875C70.243,45.651,66.717,42.125,62.368,42.125"/></svg>