<?xml version="1.0" encoding="UTF-8"?>
<svg version="1.1" xmlns="http://www.w3.org/2000/svg" width="719" height="793">
<path d="M0 0 C237.27 0 474.54 0 719 0 C719 261.69 719 523.38 719 793 C481.73 793 244.46 793 0 793 C0 531.31 0 269.62 0 0 Z " fill="#FEFEFE" transform="translate(0,0)"/>
<path d="M0 0 C0.66521493 -0.00320648 1.33042987 -0.00641296 2.01580283 -0.0097166 C4.24874736 -0.01802951 6.48142458 -0.01208788 8.71437359 -0.00622082 C10.32991086 -0.00924092 11.94544671 -0.01312969 13.56098002 -0.01781338 C18.00367987 -0.02812047 22.44629925 -0.02590467 26.88900578 -0.02163279 C31.67917229 -0.01917045 36.46931919 -0.02817365 41.25947857 -0.03567028 C50.64556899 -0.04843341 60.03163082 -0.05020893 69.41772846 -0.04787002 C77.04626315 -0.04608836 84.67478914 -0.04783324 92.30332279 -0.05209446 C93.93075435 -0.05298724 93.93075435 -0.05298724 95.59106332 -0.05389806 C97.7950338 -0.05510979 99.99900428 -0.05632393 102.20297476 -0.05754044 C122.88227882 -0.06842238 143.56156659 -0.0662505 164.24087157 -0.06015559 C183.16269267 -0.0549869 202.08446228 -0.06623947 221.00627319 -0.08525381 C240.42912813 -0.10462219 259.8519587 -0.1128899 279.27482337 -0.10913056 C290.1816602 -0.10721686 301.08845321 -0.10972241 311.99528217 -0.1238451 C321.28128179 -0.13574718 330.56721063 -0.13717703 339.8532112 -0.12505493 C344.59138151 -0.11915777 349.32942228 -0.11808992 354.06758404 -0.13005733 C358.4058944 -0.14088749 362.74396661 -0.137847 367.0822657 -0.12379565 C368.65088872 -0.12114078 370.21953024 -0.12354 371.78813515 -0.13153151 C381.19898843 -0.17614496 388.50500703 0.03710662 396.53509808 5.44197559 C401.43215786 10.45033219 403.7205146 15.62681392 403.81684041 22.63271827 C403.80747575 23.40677506 403.79811108 24.18083186 403.78846264 24.97834492 C403.7942764 25.82430062 403.80009017 26.67025633 403.8060801 27.54184705 C403.82065844 30.37176389 403.80680498 33.20081044 403.79303265 36.03072071 C403.79764241 38.0819539 403.80399583 40.13318378 403.81194162 42.18440676 C403.8286476 47.81755916 403.82038266 53.45044068 403.80799675 59.08359408 C403.79895385 65.16002826 403.81291223 71.23641557 403.82391644 77.31284046 C403.84068564 88.52725562 403.83921772 99.741584 403.82827056 110.95599736 C403.818207 121.31615508 403.81558216 131.67628115 403.82036114 142.03644276 C403.82066668 142.72374619 403.82097222 143.41104963 403.82128702 144.11918044 C403.82253238 146.90919282 403.82380598 149.6992052 403.82512607 152.48921755 C403.83736115 178.6598804 403.82626969 204.83048825 403.80473848 231.00114261 C403.78575615 254.25049271 403.78745467 277.49975517 403.80658245 300.7491045 C403.82800255 326.87200054 403.83649344 352.99484799 403.8241334 379.1177516 C403.82285053 381.90267053 403.82159917 384.68758948 403.82036114 387.47250843 C403.82004483 388.15822283 403.81972852 388.84393723 403.81940262 389.55043086 C403.81485338 399.9038951 403.82017263 410.2573242 403.83027935 420.61078358 C403.84171426 432.38353789 403.83847643 444.15620852 403.81715637 455.92895639 C403.80663504 461.93700336 403.80254278 467.94487235 403.81575298 473.95291805 C403.82765997 479.45136551 403.82114192 484.94946978 403.79984277 490.44788605 C403.79536958 492.43835137 403.79765901 494.42884561 403.80734593 496.41929239 C403.81949824 499.12347673 403.80704651 501.82648346 403.78846264 504.53060627 C403.7978273 505.30466307 403.80719197 506.07871986 403.81684041 506.87623292 C403.72697089 513.41256236 401.62509641 518.53553017 397.35541058 523.49666309 C396.71345745 524.03549122 396.07150433 524.57431934 395.41009808 525.12947559 C394.7733012 525.68377247 394.13650433 526.23806934 393.48041058 526.80916309 C388.71665487 529.94544354 384.05321183 530.50507486 378.44714832 530.5117445 C377.78077954 530.51525057 377.11441077 530.51875665 376.42784899 530.52236897 C374.19700492 530.53166601 371.96642286 530.52676413 369.73556805 530.52190113 C368.11916735 530.52563824 366.50276847 530.53024 364.88637245 530.53563178 C360.44593579 530.54786952 356.00557443 530.5476004 351.56512475 530.54524302 C346.77565457 530.54483506 341.9862086 530.55587201 337.19674969 530.56535816 C327.81414173 530.58197294 318.43155889 530.58746791 309.04893745 530.58858292 C301.4232867 530.58953308 293.79764425 530.59364179 286.17199612 530.59998417 C264.55565497 530.61759719 242.93933368 530.62682284 221.32298531 530.62532322 C220.15757725 530.62524331 218.99216919 530.6251634 217.79144573 530.62508106 C216.62461623 530.6249993 215.45778674 530.62491754 214.25559877 530.6248333 C195.34029413 530.62402019 176.42506907 530.64316412 157.50978746 530.6713578 C138.0914201 530.70007317 118.67309158 530.71389886 99.25470245 530.71217024 C88.35121702 530.71150592 77.44781504 530.71701691 66.54434872 530.73852634 C57.26201933 530.75672032 47.97981123 530.76110007 38.69747175 530.7475075 C33.96128084 530.7409691 29.22532275 530.74089213 24.48915386 530.758214 C20.15267413 530.77391103 15.8166125 530.77111569 11.48014317 530.75364573 C9.91222101 530.75056842 8.3442679 530.75423575 6.77638222 530.76536588 C-2.33719484 530.82577178 -9.5213258 530.7361909 -16.73833942 524.50838184 C-17.18435505 523.95021778 -17.63037067 523.39205372 -18.08990192 522.81697559 C-18.5513863 522.26138966 -19.01287067 521.70580372 -19.48833942 521.13338184 C-22.70480045 516.20625524 -23.00237932 511.64227202 -22.97217083 505.88413239 C-22.9756769 505.03994984 -22.97918298 504.1957673 -22.9827953 503.32600346 C-22.99213312 500.48428063 -22.98717983 497.64276165 -22.98232746 494.80103016 C-22.98606252 492.74826414 -22.99066346 490.69549954 -22.99605811 488.64273721 C-23.00832136 482.99147888 -23.00802373 477.34027959 -23.00566936 471.68901098 C-23.00526203 465.5982184 -23.01629226 459.50744497 -23.02578449 453.41666126 C-23.04241359 441.47984687 -23.04792079 429.54305157 -23.04900925 417.60622855 C-23.04992801 407.90580226 -23.05404297 398.20538237 -23.0604105 388.50495815 C-23.06220556 385.71363349 -23.06398519 382.92230881 -23.06576025 380.13098413 C-23.06620235 379.43707022 -23.06664445 378.74315631 -23.06709994 378.02821471 C-23.07940999 358.50711201 -23.0873009 338.98601154 -23.08641338 319.46490479 C-23.08638223 318.7287722 -23.08635107 317.99263962 -23.08631897 317.23419999 C-23.08615275 313.50309628 -23.08595467 309.77199258 -23.08574955 306.04088887 C-23.08570966 305.29986619 -23.08566977 304.55884352 -23.08562867 303.79536561 C-23.0855478 302.29683685 -23.0854642 300.79830808 -23.08537789 299.29977932 C-23.08415231 275.98379051 -23.09916614 252.66785987 -23.12652302 229.3518877 C-23.15723916 203.16199996 -23.1744558 176.97215044 -23.17259657 150.78224355 C-23.17244731 147.98997581 -23.1723499 145.19770807 -23.17228794 142.40544033 C-23.17226463 141.71790328 -23.17224132 141.03036622 -23.17221731 140.32199471 C-23.17215574 129.25416421 -23.18493151 118.18638417 -23.20215247 107.11856868 C-23.21910003 95.99648421 -23.22074628 84.87445885 -23.20793383 73.7523646 C-23.20138941 67.72610407 -23.20134022 61.70002658 -23.21864033 55.6737833 C-23.23431076 50.15857466 -23.23156908 44.6436951 -23.21407206 39.12849478 C-23.21098887 37.1318784 -23.21468392 35.13523782 -23.22579221 33.13864996 C-23.23988567 30.42614795 -23.22934882 27.71480467 -23.21267986 25.00234222 C-23.22261622 24.22582354 -23.23255258 23.44930486 -23.24279004 22.64925531 C-23.15956281 16.2502711 -21.16848102 11.09777307 -16.96880817 6.23103809 C-16.41064411 5.78502247 -15.85248005 5.33900684 -15.27740192 4.87947559 C-14.72181599 4.41799122 -14.16623005 3.95650684 -13.59380817 3.48103809 C-9.12747179 0.56538399 -5.28742524 0.00386894 0 0 Z " fill="#FEFEFE" transform="translate(250.7149019241333,199.7455244064331)"/>
<path d="M0 0 C1.6420101 -0.00258607 3.28401958 -0.0055999 4.92602819 -0.0090034 C9.42822531 -0.01704826 13.93040646 -0.01886157 18.43260992 -0.01960087 C23.2923833 -0.02145581 28.15214849 -0.02900536 33.01191711 -0.03573608 C43.63401147 -0.04930202 54.25610205 -0.0553414 64.87820363 -0.05974674 C71.51442943 -0.06251209 78.15065377 -0.06674997 84.78687859 -0.07125092 C103.1714535 -0.08344128 121.55602725 -0.09374107 139.94060612 -0.09712601 C141.11662861 -0.09734557 142.2926511 -0.09756514 143.50431063 -0.09779136 C144.68309819 -0.09800964 145.86188575 -0.09822791 147.07639414 -0.09845281 C149.46494615 -0.09889627 151.85349816 -0.09934283 154.24205017 -0.09979248 C155.4268468 -0.10001391 156.61164342 -0.10023534 157.83234297 -0.10046348 C177.02406876 -0.10441029 196.21575656 -0.1218618 215.40746767 -0.145152 C235.12538126 -0.16888705 254.8432758 -0.18132884 274.5612039 -0.18249393 C285.62639558 -0.18340947 296.69153776 -0.18913141 307.75671577 -0.20731354 C317.18004517 -0.22274358 326.60330973 -0.22781786 336.02664936 -0.21957543 C340.8305192 -0.21567923 345.63425862 -0.21654805 350.43811226 -0.23063278 C354.84451084 -0.24343352 359.2506818 -0.24212045 363.65708034 -0.23004207 C365.24256413 -0.22809571 366.8280644 -0.23111385 368.41352511 -0.23988643 C395.11621071 -0.37816176 418.85649483 8.08836893 438.41954041 26.57745361 C448.87918253 36.97860752 456.71173722 51.7417356 459.99131775 66.14044189 C460.15121687 66.7521612 460.31111598 67.3638805 460.47586053 67.99413675 C461.92783766 73.85806162 462.27206997 79.34415252 462.23741341 85.36841679 C462.23972109 86.36481162 462.24202878 87.36120645 462.2444064 88.38779506 C462.24969584 91.72314151 462.24073096 95.05829447 462.23182678 98.39363098 C462.23269906 100.81028235 462.23445046 103.22693354 462.23700511 105.64358371 C462.24054433 110.89591562 462.23788095 116.14820658 462.2297287 121.40053177 C462.21764043 129.21049762 462.21705878 137.02043495 462.21881268 144.83040845 C462.22143843 157.96909142 462.21476543 171.10775424 462.20277786 184.24643135 C462.19094051 197.25383161 462.1832453 210.26122347 462.18107224 223.26862907 C462.18093476 224.07763694 462.18079728 224.8866448 462.18065563 225.72016805 C462.17997896 229.82877365 462.17937619 233.93737925 462.17880188 238.04598486 C462.17460197 267.14103419 462.1611298 296.23607256 462.14219666 325.33111572 C462.12382554 353.59511253 462.10965941 381.85910633 462.10118103 410.12310791 C462.10091798 410.99445283 462.10065493 411.86579774 462.1003839 412.76354705 C462.09774684 421.51401601 462.09519522 430.26448499 462.09270618 439.01495399 C462.08763387 456.84038839 462.08199136 474.6658226 462.07600403 492.49125671 C462.07572945 493.31082664 462.07545487 494.13039656 462.07517197 494.97480193 C462.05677318 549.69668651 462.02504145 604.41856488 461.99131775 659.14044189 C415.21607932 659.24319892 368.44083211 659.3387165 321.66551208 659.39450073 C320.97272039 659.39532907 320.27992869 659.39615742 319.56614331 659.39701086 C304.50826486 659.41497021 289.45038521 659.43159103 274.39250377 659.44683387 C267.00763551 659.45431759 259.62276757 659.46209696 252.23789978 659.47003174 C251.13560183 659.47120857 251.13560183 659.47120857 250.01103523 659.47240918 C226.21143378 659.4979565 202.41191807 659.54300877 178.61236852 659.59822522 C154.14593808 659.65488549 129.67955504 659.69176954 105.2130601 659.70393184 C101.75373428 659.70566065 98.29440862 659.70761447 94.83508301 659.70970535 C93.81386138 659.71031216 93.81386138 659.71031216 92.77200901 659.71093123 C81.83282368 659.718009 70.89378534 659.74580329 59.95465985 659.7814341 C48.94496222 659.81684942 37.93538822 659.82974274 26.92563272 659.82145016 C20.96514747 659.81761234 15.00509202 659.82343912 9.04468346 659.85567474 C3.57993673 659.88501286 -1.88409383 659.88625733 -7.34887451 659.86583526 C-9.31820506 659.86331371 -11.2875815 659.87080671 -13.25682265 659.88974099 C-28.56450928 660.0282793 -42.03455343 657.60380391 -54.75868225 648.45294189 C-55.36663635 648.02924316 -55.97459045 647.60554443 -56.60096741 647.16900635 C-77.04477197 632.58269635 -90.3194733 611.8360717 -94.54587817 586.98128122 C-95.05281292 582.77419881 -95.14965921 578.69935151 -95.14011002 574.46826267 C-95.14216265 573.61572734 -95.14421528 572.76319201 -95.14633012 571.88482228 C-95.15198673 569.02670062 -95.15054452 566.16862736 -95.14912415 563.3105011 C-95.15170856 561.24108765 -95.15472193 559.1716747 -95.15812755 557.10226244 C-95.16619202 551.41397359 -95.16798681 545.72569736 -95.16872501 540.03740346 C-95.17057655 533.90287206 -95.17812445 527.7683472 -95.18486023 521.63381958 C-95.19914876 507.51876912 -95.20496986 493.40372282 -95.20955217 479.28866687 C-95.21188976 472.30960793 -95.21549262 465.33054982 -95.21924755 458.35149152 C-95.23208247 434.44944484 -95.24280118 410.5473986 -95.24625015 386.64534855 C-95.24647178 385.14541156 -95.24669357 383.64547457 -95.2469155 382.14553758 C-95.24713614 380.64202769 -95.24735663 379.13851781 -95.24757695 377.63500792 C-95.2480195 374.61883422 -95.24846661 371.60266052 -95.24891663 368.58648682 C-95.24902602 367.83865329 -95.24913541 367.09081977 -95.24924811 366.32032462 C-95.25287716 342.08251849 -95.26879174 317.84474231 -95.29210699 293.60694764 C-95.31672657 267.96621075 -95.330424 242.32549097 -95.33161807 216.68474191 C-95.33178952 213.86764713 -95.33200494 211.05055235 -95.3322525 208.23345757 C-95.33230827 207.53983714 -95.33236404 206.84621672 -95.3324215 206.1315775 C-95.33357016 194.98919864 -95.34457648 183.84685059 -95.35913956 172.70448212 C-95.37353632 161.49513411 -95.37647204 150.28582485 -95.36869958 139.07646657 C-95.36479856 133.00872368 -95.36569598 126.94108407 -95.37975693 120.87335396 C-95.39252857 115.31098131 -95.39126963 109.7487892 -95.37916622 104.18641668 C-95.37721486 102.18164215 -95.38026146 100.17685468 -95.38901058 98.17209829 C-95.49432211 72.39462304 -90.1141065 50.17822458 -73.00868225 30.14044189 C-72.40411194 29.37860596 -71.79954163 28.61677002 -71.176651 27.83184814 C-58.67213473 12.64215154 -37.97982615 2.65967049 -18.65202248 0.34680033 C-12.45211502 -0.1372097 -6.21552986 -0.00391682 0 0 Z M-24.38368225 73.57794189 C-24.84516663 74.13352783 -25.306651 74.68911377 -25.78211975 75.26153564 C-28.99858078 80.18866225 -29.29615964 84.75264546 -29.26595116 90.5107851 C-29.26945723 91.35496765 -29.27296331 92.19915019 -29.27657562 93.06891403 C-29.28591345 95.91063686 -29.28096016 98.75215584 -29.27610779 101.59388733 C-29.27984284 103.64665335 -29.28444378 105.69941795 -29.28983843 107.75218028 C-29.30210169 113.40343861 -29.30180406 119.0546379 -29.29944968 124.70590651 C-29.29904236 130.79669909 -29.31007259 136.88747252 -29.31956482 142.97825623 C-29.33619392 154.91507062 -29.34170111 166.85186592 -29.34278958 178.78868894 C-29.34370833 188.48911523 -29.3478233 198.18953512 -29.35419083 207.88995934 C-29.35598589 210.681284 -29.35776552 213.47260868 -29.35954058 216.26393336 C-29.35998268 216.95784727 -29.36042477 217.65176118 -29.36088027 218.36670278 C-29.37319032 237.88780548 -29.38108123 257.40890595 -29.38019371 276.9300127 C-29.38016255 277.66614528 -29.3801314 278.40227787 -29.38009929 279.1607175 C-29.37993308 282.89182121 -29.37973499 286.62292491 -29.37952988 290.35402862 C-29.37948999 291.0950513 -29.3794501 291.83607397 -29.379409 292.59955188 C-29.37932812 294.09808064 -29.37924453 295.59660941 -29.37915822 297.09513817 C-29.37793264 320.41112698 -29.39294647 343.72705762 -29.42030334 367.04302979 C-29.45101949 393.23291752 -29.46823613 419.42276705 -29.4663769 445.61267394 C-29.46622764 448.40494168 -29.46613023 451.19720941 -29.46606827 453.98947716 C-29.46604496 454.67701421 -29.46602165 455.36455126 -29.46599764 456.07292277 C-29.46593607 467.14075328 -29.47871184 478.20853331 -29.4959328 489.27634881 C-29.51288036 500.39843328 -29.51452661 511.52045864 -29.50171416 522.64255289 C-29.49516974 528.66881342 -29.49512054 534.6948909 -29.51242065 540.72113419 C-29.52809109 546.23634283 -29.52534941 551.75122239 -29.50785239 557.26642271 C-29.50476919 559.26303909 -29.50846425 561.25967967 -29.51957254 563.25626753 C-29.53366599 565.96876954 -29.52312915 568.68011282 -29.50646019 571.39257526 C-29.51639655 572.16909395 -29.52633291 572.94561263 -29.53657037 573.74566218 C-29.45334314 580.14464639 -27.46226134 585.29714442 -23.2625885 590.16387939 C-22.70442444 590.60989502 -22.14626038 591.05591064 -21.57118225 591.51544189 C-21.01559631 591.97692627 -20.46001038 592.43841064 -19.8875885 592.91387939 C-15.42295169 595.82842401 -11.58193218 596.39142185 -6.29657364 596.3977108 C-5.29920063 596.40296991 -5.29920063 596.40296991 -4.28167868 596.40833527 C-2.04974778 596.41765207 0.18192236 596.4127253 2.41386414 596.40786743 C4.02868908 596.41160356 5.64351223 596.41620493 7.25833249 596.42159808 C11.69909785 596.43384825 16.13978799 596.43356523 20.58056641 596.43120933 C25.36870997 596.43080167 30.15682926 596.44183549 34.94496155 596.45132446 C44.32737372 596.46794678 53.70976076 596.47343458 63.09218642 596.47454922 C70.71832924 596.47549916 78.34446375 596.47960677 85.97060394 596.48595047 C107.58778758 596.50356667 129.20495135 596.51278881 150.82214221 596.51128952 C151.98785295 596.51120961 153.15356369 596.5111297 154.354599 596.51104736 C155.52173169 596.5109656 156.68886438 596.51088384 157.89136472 596.5107996 C176.80605739 596.50998672 195.72067043 596.52912401 214.63534006 596.5573241 C234.05255058 596.58604517 253.46972225 596.5998648 272.88695455 596.59813654 C283.78992782 596.59747235 294.69281763 596.60297757 305.59577179 596.62449265 C314.87919476 596.64269427 324.16249642 596.64706018 333.4459295 596.6334738 C338.18223736 596.62693887 342.91831244 596.62684591 347.65459824 596.6441803 C351.99240365 596.65989293 356.32979136 596.65706593 360.66758648 596.63961203 C362.23488338 596.63653813 363.80221133 596.64018925 365.36947164 596.65133218 C374.77499956 596.71376236 382.85157948 596.45644916 390.3311615 590.17559814 C391.12200134 589.1991333 391.12200134 589.1991333 391.92881775 588.20294189 C392.47409119 587.55454346 393.01936462 586.90614502 393.5811615 586.23809814 C396.93877108 581.24353763 397.28022064 576.68252444 397.25137997 570.78850937 C397.25518564 569.94631479 397.25899131 569.10412022 397.2629123 568.2364046 C397.27325612 565.40143773 397.26931676 562.56667004 397.26547241 559.73168945 C397.2699233 557.68376064 397.27523685 555.63583354 397.28134114 553.58790898 C397.29554945 547.94998586 397.29718389 542.31211778 397.29674423 536.67417932 C397.29838993 530.59768036 397.3114518 524.52120425 397.32293701 518.44471741 C397.34461466 505.8452785 397.3531951 493.24585707 397.35797202 480.64640396 C397.35836378 479.6191272 397.35836378 479.6191272 397.35876346 478.57109737 C397.35915387 477.54176594 397.35915387 477.54176594 397.35955217 476.49163994 C397.362634 468.88843966 397.36913858 461.28524286 397.37576485 453.68204498 C397.39541294 430.71930995 397.41181725 407.75657867 397.41464138 384.79383469 C397.41478247 383.69204793 397.41478247 383.69204793 397.41492641 382.56800286 C397.4153049 379.59127131 397.41566889 376.61453975 397.41602939 373.6378082 C397.41630111 371.3973124 397.41657779 369.1568166 397.41685486 366.9163208 C397.41694288 366.17597525 397.4170309 365.43562969 397.41712159 364.67284942 C397.42002706 341.41054469 397.442123 318.14832306 397.4783783 294.88604736 C397.51910343 268.75511233 397.54279994 242.6242339 397.54310089 216.49326539 C397.54319772 213.70687754 397.54336444 210.92048971 397.54358101 208.13410187 C397.54362512 207.44801539 397.54366924 206.76192891 397.54371469 206.05505193 C397.54483461 195.01343939 397.56224434 183.97191009 397.58540033 172.93032436 C397.60824176 161.83286085 397.61204467 150.73548664 397.59785103 139.63800207 C397.59066784 133.62575443 397.59160064 127.61379521 397.61426163 121.60157967 C397.63480707 116.09797825 397.63229233 110.59488779 397.61138678 105.09129217 C397.60788344 103.10003919 397.61283744 101.10874967 397.62709122 99.11754462 C397.89223521 84.18139974 397.89223521 84.18139974 390.58405107 71.58567309 C385.33075778 66.63661837 378.97145618 65.89143363 372.03032017 65.88317299 C371.36279754 65.87966691 370.69527492 65.87616084 370.00752434 65.87254852 C367.77877636 65.86327121 365.55029179 65.86814821 363.3215332 65.87301636 C361.70426946 65.86927826 360.08700752 65.8646761 358.46974844 65.85928571 C354.03157109 65.84706036 349.59346915 65.84731562 345.1552788 65.84967446 C340.36650789 65.85008274 335.57776112 65.83904259 330.78900146 65.82955933 C321.40987272 65.81295176 312.03076911 65.80744992 302.65162689 65.80633457 C295.02886047 65.80538414 287.40610234 65.80127413 279.78333855 65.79493332 C258.17290555 65.77732291 236.56249241 65.76809434 214.95205218 65.76959427 C213.78720953 65.76967418 212.62236687 65.76975409 211.42222595 65.76983643 C210.25596196 65.76991819 209.08969796 65.76999995 207.88809263 65.77008419 C188.97931809 65.77089741 170.07062314 65.75174999 151.16187162 65.72355969 C131.74799266 65.69484454 112.33415253 65.68101859 92.92025179 65.68274724 C82.0201347 65.68341154 71.1201011 65.67790186 60.22000313 65.65639114 C50.94135775 65.63819755 41.66283371 65.63381716 32.38417823 65.64740999 C27.65000559 65.65394834 22.91606588 65.65402546 18.18191528 65.63670349 C13.84732582 65.62100648 9.51315462 65.62380177 5.17857557 65.64127176 C3.61135624 65.64434905 2.04410595 65.6406818 0.47692312 65.6295516 C-13.47165536 65.52287389 -13.47165536 65.52287389 -24.38368225 73.57794189 Z " fill="#00AD9A" transform="translate(257.00868225097656,133.85955810546875)"/>
<path d="M0 0 C45.59233197 -0.06848852 91.18466925 -0.13216903 136.77703857 -0.16937256 C137.78956458 -0.1702009 137.78956458 -0.1702009 138.82254565 -0.17104598 C153.49326506 -0.18301822 168.16398501 -0.19409886 182.83470578 -0.20426132 C190.02945242 -0.20925057 197.2241989 -0.2144368 204.41894531 -0.21972656 C205.1349007 -0.2202496 205.85085608 -0.22077263 206.58850708 -0.22131152 C229.78551914 -0.23835023 252.98249217 -0.26839048 276.17948059 -0.30518888 C300.02176723 -0.34294217 323.86403228 -0.36754709 347.70634831 -0.37565996 C351.07560219 -0.37681254 354.44485601 -0.37811509 357.8141098 -0.37950897 C358.47721296 -0.37977866 359.14031611 -0.38004836 359.8235133 -0.38032622 C371.14598572 -0.38534035 382.46837081 -0.40661994 393.79081401 -0.43166587 C403.86038289 -0.45280601 413.9298938 -0.45920114 423.99948326 -0.45400551 C429.80951125 -0.45144299 435.61934336 -0.4553775 441.42933655 -0.4768219 C446.75188474 -0.49632351 452.07410581 -0.49724636 457.39666924 -0.48359558 C459.31881471 -0.48190906 461.24098081 -0.48695242 463.16308585 -0.49953273 C477.61409824 -0.58859059 490.10312429 0.36257371 501 11 C508.18737254 19.00698519 510.62490268 25.74367083 510.33984375 36.49609375 C509.52454578 44.90209699 506.32375963 50.6122723 500.15234375 56.3125 C496.9830675 58.79730461 493.71332612 60.48091204 490 62 C489.154375 62.391875 488.30875 62.78375 487.4375 63.1875 C482.0899328 64.9700224 476.5855561 65.12544721 470.99215031 65.13028526 C469.98326869 65.13320041 469.98326869 65.13320041 468.95400563 65.13617444 C466.70809263 65.14147403 464.46224163 65.13973574 462.21632385 65.13803101 C460.58668717 65.14045055 458.95705109 65.14331328 457.32741588 65.14658034 C452.85505145 65.15431929 448.38270238 65.15595199 443.91033208 65.15663147 C439.08475808 65.15847369 434.25919301 65.16608189 429.43362427 65.17311096 C421.07309137 65.18462916 412.71256049 65.19287728 404.35202217 65.19923019 C391.13830869 65.20956123 377.92462031 65.23012533 364.71092224 65.25234985 C360.1894656 65.25982921 355.66800886 65.26724297 351.14655209 65.27463722 C350.01664934 65.27648779 348.8867466 65.27833835 347.72260438 65.280245 C334.86479533 65.30116624 322.00698352 65.31999817 309.14916992 65.33789062 C307.97393408 65.33952881 306.79869824 65.34116699 305.58784919 65.34285481 C286.53361615 65.3691522 267.47938117 65.38778978 248.42513765 65.40448253 C228.8620799 65.42189792 209.29906023 65.45073552 189.7360329 65.4893719 C177.66906159 65.5127771 165.60215234 65.52676694 153.53515815 65.52869953 C145.26819263 65.53080753 137.00128889 65.54372522 128.73435111 65.56517886 C123.96377257 65.57721541 119.19331669 65.5843541 114.42272377 65.57846642 C110.05487224 65.5731722 105.68727096 65.58164335 101.31946122 65.60102279 C99.74013725 65.6055985 98.16078883 65.60512761 96.58146984 65.59907441 C83.81189515 65.3072748 83.81189515 65.3072748 72.72265625 70.9375 C72.17480469 71.618125 71.62695312 72.29875 71.0625 73 C70.49660156 73.680625 69.93070312 74.36125 69.34765625 75.0625 C66.69312963 78.87886291 66.87427961 82.27717651 66.87250805 86.79283524 C66.87086422 87.49078953 66.86922038 88.18874382 66.86752674 88.90784824 C66.86318922 91.26420788 66.86599388 93.62050634 66.86869812 95.97686768 C66.86699679 97.67643429 66.86484748 99.37600051 66.86228687 101.07556605 C66.8576812 104.78010311 66.85627069 108.48462345 66.85725212 112.18916321 C66.85884192 118.21646789 66.853649 124.24375592 66.84762573 130.27105713 C66.83950416 139.02397914 66.83456583 147.77689822 66.83133507 156.5298233 C66.82584112 170.37102995 66.80894516 184.21221191 66.78999329 198.05340576 C66.78363603 202.78827282 66.77732763 207.52313993 66.77101612 212.25800705 C66.76943236 213.44144353 66.7678486 214.62488002 66.76621684 215.84417821 C66.74827079 229.32352589 66.73205031 242.80287531 66.71704102 256.28222656 C66.71497721 258.13095159 66.71497721 258.13095159 66.71287171 260.01702461 C66.69096377 279.96886638 66.6801913 299.92070182 66.67267027 319.8725535 C66.66459195 340.35874414 66.64127605 360.8448805 66.6047166 381.33104014 C66.58271607 393.96433327 66.5730195 406.59751468 66.57921693 419.23082599 C66.58239781 427.89736304 66.57101992 436.5638049 66.54832252 445.2303125 C66.53568685 450.22656704 66.52944589 455.22260947 66.54073906 460.21887207 C66.55096333 464.80133728 66.54254379 469.38339214 66.5198761 473.9658092 C66.51491263 475.61536354 66.51655016 477.26495525 66.52580877 478.91449109 C66.60417928 494.08106553 64.92585542 508.36238456 54.1875 519.95703125 C47.76993989 526.10288015 40.82917521 529.14975612 31.9375 529.5 C22.34873793 529.11939613 15.48128978 524.90769042 9 518 C-0.87589592 506.075381 -0.57335805 491.16337639 -0.48101807 476.56864929 C-0.48276456 474.50740164 -0.48627091 472.44615486 -0.49137473 470.38491279 C-0.50028309 464.74758713 -0.48436803 459.1105677 -0.46426249 453.47328103 C-0.4469421 447.38415515 -0.45283743 441.29504569 -0.45587158 435.2059021 C-0.45796604 424.66494052 -0.44558701 414.12406677 -0.42292023 403.5831356 C-0.39921916 392.53279842 -0.3838498 381.48250086 -0.37950897 370.43213844 C-0.37923401 369.74401771 -0.37895906 369.05589697 -0.37867576 368.3469241 C-0.37732236 364.85203827 -0.37611685 361.35715241 -0.37496826 357.86226652 C-0.36657569 333.13414361 -0.33965165 308.40607235 -0.30175781 283.67797852 C-0.26499637 259.66105422 -0.23667355 235.64414408 -0.21972656 211.62719727 C-0.21920046 210.88636132 -0.21867435 210.14552537 -0.21813231 209.38223985 C-0.21285804 201.94218525 -0.20775481 194.50213054 -0.20277687 187.06207573 C-0.19263312 171.90700908 -0.18134812 156.75194336 -0.16937256 141.59687805 C-0.1688234 140.90013483 -0.16827424 140.2033916 -0.16770844 139.48553494 C-0.13093102 92.99033473 -0.06746976 46.49516474 0 0 Z " fill="#00AD9A" transform="translate(0,0)"/>
<path d="M0 0 C24.09 0 48.18 0 73 0 C69.24922678 1.87538661 66.24312053 2.70071588 62.1875 3.625 C49.55817265 6.78737984 38.63378499 13.29798005 29 22 C27.86498047 22.99580078 27.86498047 22.99580078 26.70703125 24.01171875 C12.08314059 37.62880111 4.90330987 55.82786035 1 75 C0.67 75 0.34 75 0 75 C0 50.25 0 25.5 0 0 Z " fill="#FCFDFD" transform="translate(0,0)"/>
<path d="M0 0 C0.33 0 0.66 0 1 0 C1 24.42 1 48.84 1 74 C-20.12 74 -41.24 74 -63 74 C-60.01084692 72.00723128 -57.43458266 71.01010027 -54.0625 69.8125 C-43.97696493 65.9757336 -35.51870834 61.00981556 -27.7421875 53.50390625 C-26 52 -26 52 -24 52 C-23.74476563 51.42894531 -23.48953125 50.85789062 -23.2265625 50.26953125 C-21.86544237 47.75102552 -20.24981974 45.84989169 -18.375 43.6875 C-8.10398135 31.02613519 -2.13320576 16.08324872 0 0 Z " fill="#FBFEFD" transform="translate(718,719)"/>
</svg>
