<?xml version="1.0" encoding="UTF-8"?>
<svg version="1.1" xmlns="http://www.w3.org/2000/svg" width="673" height="684">
<path d="M0 0 C49.87814938 -1.24463932 96.57709918 15.58492565 132.87158203 50.06201172 C133.39864746 50.55652832 133.92571289 51.05104492 134.46875 51.56054688 C169.53222895 84.64326439 187.66038757 130.34134989 189.87158203 178.06201172 C191.12006132 226.76980657 172.20654993 272.88193489 138.87158203 308.06201172 C136.56716523 310.4259522 134.2399538 312.76217804 131.87158203 315.06201172 C134.72484334 317.33216687 137.55453187 318.99381462 140.84423828 320.55810547 C141.81699707 321.02812988 142.78975586 321.4981543 143.79199219 321.98242188 C144.82888184 322.48306152 145.86577148 322.98370117 146.93408203 323.49951172 C163.23827367 331.51784592 178.35036396 341.16262604 192.87158203 352.06201172 C193.44714844 352.49336426 194.02271484 352.9247168 194.61572266 353.36914062 C202.98388629 359.68678125 210.7591062 366.47466088 218.37841797 373.67041016 C220.62593858 375.76505821 222.93935009 377.78359935 225.24658203 379.81201172 C228.81613093 383.0136844 232.03139426 386.33320977 235.11767578 389.99951172 C237.01434922 392.2298983 239.00192944 394.3564367 240.99658203 396.49951172 C278.93166575 438.63524355 302.56889636 492.50288725 312.80908203 547.87451172 C313.02081055 549.00026611 313.23253906 550.12602051 313.45068359 551.28588867 C316.15711919 566.84558805 315.59030456 581.45076863 306.87158203 595.06201172 C296.85514724 608.15763985 284.2467711 615.81528282 267.87158203 618.06201172 C264.93288837 618.20257134 261.99859822 618.20159483 259.05695534 618.1962328 C257.73682958 618.19976114 257.73682958 618.19976114 256.39003462 618.20336077 C253.43218067 618.21003353 250.47437084 618.20959306 247.51651001 618.20918274 C245.37783789 618.21248244 243.2391664 618.21620823 241.1004957 618.22032422 C235.2161223 618.23034033 229.33175911 618.23406039 223.4473784 618.23671353 C217.10355588 618.24061775 210.75974144 618.25019603 204.41592407 618.25892639 C189.81591315 618.27775373 175.2159032 618.2879466 160.61588316 618.29638707 C153.39787903 618.30059585 146.17987573 618.30581756 138.9618723 618.3110716 C114.24426538 618.32896163 89.52665822 618.34395631 64.80904579 618.35139179 C63.2576093 618.35186655 61.7061728 618.35234243 60.1547363 618.35281945 C59.38537785 618.35305583 58.6160194 618.35329221 57.82334705 618.35353575 C53.92552564 618.35473692 50.02770422 618.35595238 46.12988281 618.35717773 C44.96958971 618.35753796 44.96958971 618.35753796 43.78585633 618.35790546 C18.71682752 618.36579508 -6.35215393 618.38922003 -31.42116207 618.42173368 C-57.93740554 618.45606142 -84.45362132 618.4757457 -110.96988738 618.47903603 C-113.88304815 618.47945356 -116.7962089 618.47993312 -119.70936966 618.48045921 C-120.78529038 618.480644 -120.78529038 618.480644 -121.88294687 618.48083252 C-133.40755331 618.48316098 -144.93210458 618.49880118 -156.45669138 618.51930106 C-168.05040488 618.53959602 -179.64403689 618.54468665 -191.23776655 618.53553043 C-197.51413391 618.53098868 -203.79032281 618.53286504 -210.06666565 618.55229187 C-215.81971321 618.56994477 -221.57245237 618.56890823 -227.3255033 618.55339458 C-229.39962289 618.55102177 -231.47376396 618.55532492 -233.54785077 618.56722323 C-252.85706428 618.67107456 -270.26621796 616.62847213 -285.00341797 602.74951172 C-294.87743507 592.21364927 -299.55137101 579.69777244 -299.40576172 565.34716797 C-296.64618917 508.79652452 -269.21035333 450.58856664 -234.12841797 407.06201172 C-233.66612793 406.48789551 -233.20383789 405.9137793 -232.72753906 405.32226562 C-222.86458257 393.17631738 -212.2501327 381.29878247 -200.41748047 371.04638672 C-198.90456708 369.73485088 -197.41900282 368.39101255 -195.96435547 367.01513672 C-175.50423925 347.75028502 -150.45953949 332.80402039 -125.25366211 320.66113281 C-121.95033194 319.05546128 -118.97101606 317.39751317 -116.12841797 315.06201172 C-117.07201172 314.16482422 -118.01560547 313.26763672 -118.98779297 312.34326172 C-154.70587454 277.86006405 -173.38723552 231.14303389 -174.36328125 181.74707031 C-174.68071872 131.99130764 -153.44717365 85.88211787 -118.88378906 50.79003906 C-87.75434117 20.14550051 -43.62295226 1.27096007 0 0 Z M-29.12841797 41.06201172 C-29.97082031 41.29807129 -30.81322266 41.53413086 -31.68115234 41.77734375 C-56.82089839 48.96078998 -77.54866393 61.89527129 -96.12841797 80.06201172 C-96.70068115 80.61453613 -97.27294434 81.16706055 -97.86254883 81.73632812 C-121.09530881 104.4777417 -136.93424237 139.14164462 -137.33154297 171.85888672 C-137.35776149 174.51046385 -137.37609915 177.16045898 -137.37841797 179.81201172 C-137.37909271 180.50353333 -137.37976746 181.19505493 -137.38046265 181.90753174 C-137.36301256 193.18354614 -136.73856244 204.05881412 -134.12841797 215.06201172 C-133.96212891 215.76890137 -133.79583984 216.47579102 -133.62451172 217.20410156 C-128.14245549 239.5637846 -117.30046728 259.79911462 -102.12841797 277.06201172 C-101.39880859 277.91279297 -100.66919922 278.76357422 -99.91748047 279.64013672 C-91.18463677 289.62928425 -81.91082038 297.21816527 -70.72851562 304.28198242 C-65.54417248 307.66470053 -62.57357411 310.3175249 -60.12841797 316.06201172 C-58.83901646 322.45566471 -59.83551114 327.81334553 -63.25341797 333.30810547 C-68.61455195 338.32299955 -76.32942227 340.28672168 -83.12841797 342.62451172 C-121.66559473 356.32073098 -154.86547435 377.71425008 -184.12841797 406.06201172 C-184.69898926 406.61066895 -185.26956055 407.15932617 -185.85742188 407.72460938 C-192.81507848 414.4328131 -199.17706169 421.43287947 -205.12841797 429.06201172 C-205.91732422 430.04556641 -206.70623047 431.02912109 -207.51904297 432.04248047 C-236.01794177 467.87482512 -261.71099781 519.07883703 -262.37841797 565.68701172 C-262.40419922 566.77240234 -262.42998047 567.85779297 -262.45654297 568.97607422 C-262.07132456 572.59896165 -261.43388395 574.24109603 -259.12841797 577.06201172 C-253.64972418 580.84974599 -249.7427702 581.64105543 -243.16560364 581.56537628 C-242.28166959 581.57119004 -241.39773554 581.57700381 -240.4870156 581.58299375 C-237.52190939 581.597604 -234.55762962 581.58370351 -231.5925293 581.56994629 C-229.44657626 581.57455478 -227.30062638 581.58090735 -225.15468311 581.58885527 C-219.25510875 581.60557864 -213.35579267 581.5972884 -207.45621729 581.58491039 C-201.09484753 581.5758746 -194.73352274 581.58982233 -188.37216187 581.60083008 C-176.62974155 581.61760616 -164.88741331 581.61612792 -153.14498851 581.6051842 C-142.29738462 581.59512401 -131.44981096 581.59249422 -120.60220337 581.59727478 C-119.88280009 581.59758032 -119.16339682 581.59788586 -118.42219345 581.59820066 C-115.50193872 581.599446 -112.581684 581.6007196 -109.6614293 581.60203972 C-82.26431903 581.61427714 -54.86726129 581.60317962 -27.47015913 581.58165213 C-3.12672508 581.56266954 21.21662528 581.56436804 45.56005859 581.58349609 C72.90689154 581.60491224 100.25367806 581.61340928 127.60051823 581.60104704 C130.51546795 581.59976416 133.43041769 581.5985128 136.34536743 581.59727478 C137.42197861 581.59680032 137.42197861 581.59680032 138.52033951 581.59631627 C149.36142193 581.59176539 160.20247081 581.59708931 171.04354858 581.60719299 C183.36972537 581.61862344 195.69578924 581.6153993 208.02195621 581.59407002 C214.31340696 581.58354279 220.60468766 581.57946642 226.89613724 581.59266663 C232.6523924 581.60456146 238.40831943 581.59807572 244.1645447 581.57675642 C246.24990724 581.57227804 248.33529735 581.57458417 250.42064226 581.58425957 C253.25041419 581.59638455 256.07905523 581.58398771 258.9087677 581.56537628 C259.7226373 581.57474095 260.5365069 581.58410561 261.37503922 581.59375405 C266.98412301 581.51977972 270.2317463 580.2413864 274.87158203 577.06201172 C278.53026613 573.16728348 278.08596118 569.20431725 278.0300293 564.15014648 C277.76722532 559.0281011 276.87277622 554.08543859 275.87158203 549.06201172 C275.53936646 547.38292725 275.53936646 547.38292725 275.20043945 545.66992188 C266.20216443 502.05425331 247.05449661 461.55718792 218.87158203 427.06201172 C218.42137695 426.51029297 217.97117187 425.95857422 217.50732422 425.39013672 C207.6468468 413.38725262 196.89394074 401.93143031 184.87158203 392.06201172 C184.39269531 391.65869629 183.91380859 391.25538086 183.42041016 390.83984375 C154.89329298 366.85891481 121.93718626 349.47700428 86.47314453 338.15966797 C82.39169059 336.43761308 79.60638569 334.10087206 77.05908203 330.49951172 C75.1471887 324.96508365 74.77812494 319.49425203 76.57470703 313.85498047 C79.54340057 308.23883262 84.42324881 305.42542668 89.68408203 302.12451172 C94.7560217 298.8426684 99.29140609 294.98883904 103.87158203 291.06201172 C104.72751953 290.34142578 105.58345703 289.62083984 106.46533203 288.87841797 C131.85430741 266.89814761 150.0257042 231.91337731 152.74267578 198.2734375 C153.69155148 181.99518736 153.15646759 166.04604828 149.87158203 150.06201172 C149.61634766 148.79873047 149.36111328 147.53544922 149.09814453 146.23388672 C140.38029765 109.28301279 115.67904212 77.8935127 83.93408203 57.81201172 C73.40147343 51.33952943 62.76082885 46.43670321 50.93408203 42.81201172 C50.17256836 42.57772461 49.41105469 42.3434375 48.62646484 42.10205078 C35.16149359 38.19322739 22.0975219 36.49966118 8.12158203 36.62451172 C7.38179108 36.62788544 6.64200012 36.63125916 5.87979126 36.63473511 C-6.17254191 36.71401291 -17.52392377 37.66884203 -29.12841797 41.06201172 Z " fill="#02AD9B" transform="translate(327.12841796875,25.93798828125)"/>
</svg>
